# xmcd
#
# Track frame offsets:
#	150
#	16687
#	37042
#	57222
#	73032
#	91407
#	111985
#	132350
#	144662
#	154727
#	167927
#	195527
#	215850
#	231585
#
# Disc length: 3343 seconds
#
# Revision: 1
# Processed by: cddbd v1.5.2PL0 Copyright (c) Steve Scherf et al.
# Submitted via: audiograbber 1.83.01
#
DISCID=d20d0d0e
DTITLE=Flying Burrito Brothers - Honky Tonkin
DYEAR=1900
DGENRE=
TTITLE0=Sons of the Golden West
TTITLE1=Honky Tonkin
TTITLE2=Area 51
TTITLE3=Mama's Hungry Eyes
TTITLE4=Pioneer Zephyr Train
TTITLE5=When I was A cowboy
TTITLE6=Down at the Palomino
TTITLE7=Genuine Healer
TTITLE8=Pull This
TTITLE9=Amyone Else But You
TTITLE10=Honky Tonk Blues
TTITLE11=Up On Sycamore
TTITLE12=Locked away
TTITLE13=Wheel of Love
EXTD=
EXTT0=
EXTT1=
EXTT2=
EXTT3=
EXTT4=
EXTT5=
EXTT6=
EXTT7=
EXTT8=
EXTT9=
EXTT10=
EXTT11=
EXTT12=
EXTT13=
PLAYORDER=
